<svg id="visual" viewBox="0 0 960 540" width="960" height="540" xmlns="http://www.w3.org/2000/svg" xmlns:xlink="http://www.w3.org/1999/xlink" version="1.1"><path d="M0 148L17.8 154.5C35.7 161 71.3 174 106.8 184.7C142.3 195.3 177.7 203.7 213.2 197C248.7 190.3 284.3 168.7 320 155.7C355.7 142.7 391.3 138.3 426.8 142C462.3 145.7 497.7 157.3 533.2 165C568.7 172.7 604.3 176.3 640 180.7C675.7 185 711.3 190 746.8 179.8C782.3 169.7 817.7 144.3 853.2 141.7C888.7 139 924.3 159 942.2 169L960 179L960 0L942.2 0C924.3 0 888.7 0 853.2 0C817.7 0 782.3 0 746.8 0C711.3 0 675.7 0 640 0C604.3 0 568.7 0 533.2 0C497.7 0 462.3 0 426.8 0C391.3 0 355.7 0 320 0C284.3 0 248.7 0 213.2 0C177.7 0 142.3 0 106.8 0C71.3 0 35.7 0 17.8 0L0 0Z" fill="#0066ff"></path><path d="M0 179L17.8 169.2C35.7 159.3 71.3 139.7 106.8 133.5C142.3 127.3 177.7 134.7 213.2 140C248.7 145.3 284.3 148.7 320 142.7C355.7 136.7 391.3 121.3 426.8 111.5C462.3 101.7 497.7 97.3 533.2 95C568.7 92.7 604.3 92.3 640 101.7C675.7 111 711.3 130 746.8 137.5C782.3 145 817.7 141 853.2 132.5C888.7 124 924.3 111 942.2 104.5L960 98L960 0L942.2 0C924.3 0 888.7 0 853.2 0C817.7 0 782.3 0 746.8 0C711.3 0 675.7 0 640 0C604.3 0 568.7 0 533.2 0C497.7 0 462.3 0 426.8 0C391.3 0 355.7 0 320 0C284.3 0 248.7 0 213.2 0C177.7 0 142.3 0 106.8 0C71.3 0 35.7 0 17.8 0L0 0Z" fill="#0070fa"></path><path d="M0 92L17.8 90.7C35.7 89.3 71.3 86.7 106.8 96C142.3 105.3 177.7 126.7 213.2 127.7C248.7 128.7 284.3 109.3 320 104.2C355.7 99 391.3 108 426.8 109.2C462.3 110.3 497.7 103.7 533.2 104.5C568.7 105.3 604.3 113.7 640 116C675.7 118.3 711.3 114.7 746.8 113.8C782.3 113 817.7 115 853.2 111.2C888.7 107.3 924.3 97.7 942.2 92.8L960 88L960 0L942.2 0C924.3 0 888.7 0 853.2 0C817.7 0 782.3 0 746.8 0C711.3 0 675.7 0 640 0C604.3 0 568.7 0 533.2 0C497.7 0 462.3 0 426.8 0C391.3 0 355.7 0 320 0C284.3 0 248.7 0 213.2 0C177.7 0 142.3 0 106.8 0C71.3 0 35.7 0 17.8 0L0 0Z" fill="#0079f4"></path><path d="M0 70L17.8 69.5C35.7 69 71.3 68 106.8 70.8C142.3 73.7 177.7 80.3 213.2 83.2C248.7 86 284.3 85 320 86.7C355.7 88.3 391.3 92.7 426.8 93.7C462.3 94.7 497.7 92.3 533.2 88C568.7 83.7 604.3 77.3 640 75.3C675.7 73.3 711.3 75.7 746.8 75C782.3 74.3 817.7 70.7 853.2 73.3C888.7 76 924.3 85 942.2 89.5L960 94L960 0L942.2 0C924.3 0 888.7 0 853.2 0C817.7 0 782.3 0 746.8 0C711.3 0 675.7 0 640 0C604.3 0 568.7 0 533.2 0C497.7 0 462.3 0 426.8 0C391.3 0 355.7 0 320 0C284.3 0 248.7 0 213.2 0C177.7 0 142.3 0 106.8 0C71.3 0 35.7 0 17.8 0L0 0Z" fill="#0081ec"></path><path d="M0 55L17.8 57C35.7 59 71.3 63 106.8 64.7C142.3 66.3 177.7 65.7 213.2 64C248.7 62.3 284.3 59.7 320 58.3C355.7 57 391.3 57 426.8 61.3C462.3 65.7 497.7 74.3 533.2 72.5C568.7 70.7 604.3 58.3 640 53.3C675.7 48.3 711.3 50.7 746.8 51.2C782.3 51.7 817.7 50.3 853.2 47.7C888.7 45 924.3 41 942.2 39L960 37L960 0L942.2 0C924.3 0 888.7 0 853.2 0C817.7 0 782.3 0 746.8 0C711.3 0 675.7 0 640 0C604.3 0 568.7 0 533.2 0C497.7 0 462.3 0 426.8 0C391.3 0 355.7 0 320 0C284.3 0 248.7 0 213.2 0C177.7 0 142.3 0 106.8 0C71.3 0 35.7 0 17.8 0L0 0Z" fill="#0087e3"></path><path d="M0 33L17.8 31.3C35.7 29.7 71.3 26.3 106.8 29.8C142.3 33.3 177.7 43.7 213.2 49.2C248.7 54.7 284.3 55.3 320 54.2C355.7 53 391.3 50 426.8 45.3C462.3 40.7 497.7 34.3 533.2 31.2C568.7 28 604.3 28 640 31C675.7 34 711.3 40 746.8 39.2C782.3 38.3 817.7 30.7 853.2 31C888.7 31.3 924.3 39.7 942.2 43.8L960 48L960 0L942.2 0C924.3 0 888.7 0 853.2 0C817.7 0 782.3 0 746.8 0C711.3 0 675.7 0 640 0C604.3 0 568.7 0 533.2 0C497.7 0 462.3 0 426.8 0C391.3 0 355.7 0 320 0C284.3 0 248.7 0 213.2 0C177.7 0 142.3 0 106.8 0C71.3 0 35.7 0 17.8 0L0 0Z" fill="#1a8cd8"></path></svg>